<svg id="visual" viewBox="0 0 900 600" width="900" height="600" xmlns="http://www.w3.org/2000/svg" xmlns:xlink="http://www.w3.org/1999/xlink" version="1.1"><rect x="0" y="0" width="900" height="600" fill="#eefbff"></rect><g transform="translate(915.9979419794174 557.5252744293632)"><path d="M202.9 -381.2C246.8 -326.1 255 -239 298.9 -170.2C342.8 -101.3 422.4 -50.7 444.7 12.8C466.9 76.3 431.8 152.7 395.6 234.9C359.4 317.2 322.2 405.4 256.1 461.1C190 516.8 95 539.9 3.6 533.7C-87.8 527.5 -175.7 491.9 -219 423.1C-262.3 354.3 -261 252.1 -295.1 176.1C-329.2 100 -398.6 50 -441.9 -25C-485.2 -100 -502.4 -200 -456.2 -255C-409.9 -310 -300.2 -320 -213.6 -350.5C-127 -381 -63.5 -432 8 -445.8C79.5 -459.7 159 -436.4 202.9 -381.2" fill="#e9f4fd"></path></g></svg>