<svg id="visual" viewBox="0 0 960 540" width="960" height="540" xmlns="http://www.w3.org/2000/svg" xmlns:xlink="http://www.w3.org/1999/xlink" version="1.1"><rect x="0" y="0" width="960" height="540" fill="#fbfdff"></rect><defs><linearGradient id="grad1_0" x1="43.8%" y1="100%" x2="100%" y2="0%"><stop offset="14.444444444444446%" stop-color="#ffc773" stop-opacity="1"></stop><stop offset="85.55555555555554%" stop-color="#ffc773" stop-opacity="1"></stop></linearGradient></defs><defs><linearGradient id="grad1_1" x1="43.8%" y1="100%" x2="100%" y2="0%"><stop offset="14.444444444444446%" stop-color="#ffc773" stop-opacity="1"></stop><stop offset="85.55555555555554%" stop-color="#b4f4da" stop-opacity="1"></stop></linearGradient></defs><defs><linearGradient id="grad1_2" x1="43.8%" y1="100%" x2="100%" y2="0%"><stop offset="14.444444444444446%" stop-color="#fbfdff" stop-opacity="1"></stop><stop offset="85.55555555555554%" stop-color="#b4f4da" stop-opacity="1"></stop></linearGradient></defs><defs><linearGradient id="grad2_0" x1="0%" y1="100%" x2="56.3%" y2="0%"><stop offset="14.444444444444446%" stop-color="#ffc773" stop-opacity="1"></stop><stop offset="85.55555555555554%" stop-color="#ffc773" stop-opacity="1"></stop></linearGradient></defs><defs><linearGradient id="grad2_1" x1="0%" y1="100%" x2="56.3%" y2="0%"><stop offset="14.444444444444446%" stop-color="#b4f4da" stop-opacity="1"></stop><stop offset="85.55555555555554%" stop-color="#ffc773" stop-opacity="1"></stop></linearGradient></defs><defs><linearGradient id="grad2_2" x1="0%" y1="100%" x2="56.3%" y2="0%"><stop offset="14.444444444444446%" stop-color="#b4f4da" stop-opacity="1"></stop><stop offset="85.55555555555554%" stop-color="#fbfdff" stop-opacity="1"></stop></linearGradient></defs><g transform="translate(960, 540)"><path d="M-243 0C-239.7 -34.8 -236.5 -69.7 -216.2 -89.5C-195.9 -109.4 -158.6 -114.3 -137.9 -137.9C-117.2 -161.5 -113.2 -203.9 -93 -224.5C-72.8 -245.1 -36.4 -244.1 0 -243L0 0Z" fill="#d1f9ff"></path><path d="M-162 0C-159.8 -23.2 -157.7 -46.5 -144.1 -59.7C-130.6 -72.9 -105.7 -76.2 -91.9 -91.9C-78.1 -107.7 -75.5 -135.9 -62 -149.7C-48.5 -163.4 -24.3 -162.7 0 -162L0 0Z" fill="#cbe59d"></path><path d="M-81 0C-79.9 -11.6 -78.8 -23.2 -72.1 -29.8C-65.3 -36.5 -52.9 -38.1 -46 -46C-39.1 -53.8 -37.7 -68 -31 -74.8C-24.3 -81.7 -12.1 -81.4 0 -81L0 0Z" fill="#ffc773"></path></g><g transform="translate(0, 0)"><path d="M243 0C243.5 35.9 244 71.7 224.5 93C205 114.3 165.6 121 142.1 142.1C118.7 163.3 111.3 198.8 90.3 218C69.3 237.3 34.6 240.1 0 243L0 0Z" fill="#d1f9ff"></path><path d="M162 0C162.3 23.9 162.7 47.8 149.7 62C136.7 76.2 110.4 80.7 94.8 94.8C79.1 108.8 74.2 132.5 60.2 145.4C46.2 158.2 23.1 160.1 0 162L0 0Z" fill="#cbe59d"></path><path d="M81 0C81.2 12 81.3 23.9 74.8 31C68.3 38.1 55.2 40.3 47.4 47.4C39.6 54.4 37.1 66.3 30.1 72.7C23.1 79.1 11.5 80 0 81L0 0Z" fill="#ffc773"></path></g></svg>